<mxfile host="app.diagrams.net" modified="2024-05-11T12:42:27.770Z" agent="Mozilla/5.0 (Windows NT 10.0; Win64; x64) AppleWebKit/537.36 (KHTML, like Gecko) Chrome/124.0.0.0 Safari/537.36" etag="0SayJ2OeQh2qVBAheNvc" version="24.0.2" type="device">
  <diagram id="C5RBs43oDa-KdzZeNtuy" name="Page-1">
    <mxGraphModel dx="1195" dy="615" grid="1" gridSize="10" guides="1" tooltips="1" connect="1" arrows="1" fold="1" page="1" pageScale="1" pageWidth="827" pageHeight="1169" math="0" shadow="0">
      <root>
        <mxCell id="WIyWlLk6GJQsqaUBKTNV-0" />
        <mxCell id="WIyWlLk6GJQsqaUBKTNV-1" parent="WIyWlLk6GJQsqaUBKTNV-0" />
        <mxCell id="6Fsrv-u3DBaQ2dv-kSif-0" value="«abstract»&lt;br&gt;&lt;b&gt;GameObject&lt;/b&gt;" style="html=1;whiteSpace=wrap;" vertex="1" parent="WIyWlLk6GJQsqaUBKTNV-1">
          <mxGeometry x="270" y="130" width="110" height="50" as="geometry" />
        </mxCell>
        <mxCell id="6Fsrv-u3DBaQ2dv-kSif-1" value="" style="endArrow=block;endSize=16;endFill=0;html=1;rounded=0;entryX=0.5;entryY=1;entryDx=0;entryDy=0;" edge="1" parent="WIyWlLk6GJQsqaUBKTNV-1" target="6Fsrv-u3DBaQ2dv-kSif-0">
          <mxGeometry width="160" relative="1" as="geometry">
            <mxPoint x="450" y="280" as="sourcePoint" />
            <mxPoint x="420" y="320" as="targetPoint" />
          </mxGeometry>
        </mxCell>
        <mxCell id="6Fsrv-u3DBaQ2dv-kSif-2" value="Location" style="swimlane;fontStyle=1;align=center;verticalAlign=top;childLayout=stackLayout;horizontal=1;startSize=26;horizontalStack=0;resizeParent=1;resizeParentMax=0;resizeLast=0;collapsible=1;marginBottom=0;whiteSpace=wrap;html=1;" vertex="1" parent="WIyWlLk6GJQsqaUBKTNV-1">
          <mxGeometry x="390" y="280" width="160" height="260" as="geometry" />
        </mxCell>
        <mxCell id="6Fsrv-u3DBaQ2dv-kSif-7" value="+ _inventory: Inventory" style="text;strokeColor=none;fillColor=none;align=left;verticalAlign=top;spacingLeft=4;spacingRight=4;overflow=hidden;rotatable=0;points=[[0,0.5],[1,0.5]];portConstraint=eastwest;whiteSpace=wrap;html=1;" vertex="1" parent="6Fsrv-u3DBaQ2dv-kSif-2">
          <mxGeometry y="26" width="160" height="26" as="geometry" />
        </mxCell>
        <mxCell id="6Fsrv-u3DBaQ2dv-kSif-4" value="" style="line;strokeWidth=1;fillColor=none;align=left;verticalAlign=middle;spacingTop=-1;spacingLeft=3;spacingRight=3;rotatable=0;labelPosition=right;points=[];portConstraint=eastwest;strokeColor=inherit;" vertex="1" parent="6Fsrv-u3DBaQ2dv-kSif-2">
          <mxGeometry y="52" width="160" height="8" as="geometry" />
        </mxCell>
        <mxCell id="6Fsrv-u3DBaQ2dv-kSif-5" value="+ Location (string[] ids, string name,&amp;nbsp; string description)&amp;nbsp;" style="text;strokeColor=none;fillColor=none;align=left;verticalAlign=top;spacingLeft=4;spacingRight=4;overflow=hidden;rotatable=0;points=[[0,0.5],[1,0.5]];portConstraint=eastwest;whiteSpace=wrap;html=1;" vertex="1" parent="6Fsrv-u3DBaQ2dv-kSif-2">
          <mxGeometry y="60" width="160" height="60" as="geometry" />
        </mxCell>
        <mxCell id="6Fsrv-u3DBaQ2dv-kSif-8" value="&lt;div&gt;&lt;span style=&quot;background-color: initial;&quot;&gt;+ Locate (string id): Item&lt;/span&gt;&lt;br&gt;&lt;/div&gt;&lt;div&gt;+ FullDescription: string &amp;lt;&amp;lt;override, readonly, property&amp;gt;&amp;gt;&lt;/div&gt;&lt;div&gt;&lt;br&gt;&lt;/div&gt;&lt;div&gt;+ Inventory: Inventory &amp;lt;&amp;lt;readonly, property&amp;gt;&amp;gt;&lt;/div&gt;&lt;div&gt;&lt;br&gt;&lt;/div&gt;&lt;div&gt;&lt;br&gt;&lt;/div&gt;&lt;div&gt;&lt;br&gt;&lt;/div&gt;&lt;div&gt;&lt;br&gt;&lt;/div&gt;&lt;div&gt;&lt;br&gt;&lt;/div&gt;&lt;div&gt;&lt;br&gt;&lt;/div&gt;" style="text;strokeColor=none;fillColor=none;align=left;verticalAlign=top;spacingLeft=4;spacingRight=4;overflow=hidden;rotatable=0;points=[[0,0.5],[1,0.5]];portConstraint=eastwest;whiteSpace=wrap;html=1;" vertex="1" parent="6Fsrv-u3DBaQ2dv-kSif-2">
          <mxGeometry y="120" width="160" height="140" as="geometry" />
        </mxCell>
        <mxCell id="6Fsrv-u3DBaQ2dv-kSif-12" value="«interface»&lt;br&gt;&lt;b&gt;IHaveInventory&lt;/b&gt;" style="html=1;whiteSpace=wrap;" vertex="1" parent="WIyWlLk6GJQsqaUBKTNV-1">
          <mxGeometry x="540" y="130" width="110" height="50" as="geometry" />
        </mxCell>
        <mxCell id="6Fsrv-u3DBaQ2dv-kSif-16" value="" style="endArrow=block;endSize=16;endFill=0;html=1;rounded=0;entryX=0.595;entryY=0.958;entryDx=0;entryDy=0;exitX=0.75;exitY=0;exitDx=0;exitDy=0;entryPerimeter=0;" edge="1" parent="WIyWlLk6GJQsqaUBKTNV-1" source="6Fsrv-u3DBaQ2dv-kSif-2" target="6Fsrv-u3DBaQ2dv-kSif-12">
          <mxGeometry width="160" relative="1" as="geometry">
            <mxPoint x="460" y="290" as="sourcePoint" />
            <mxPoint x="335" y="190" as="targetPoint" />
          </mxGeometry>
        </mxCell>
        <mxCell id="6Fsrv-u3DBaQ2dv-kSif-17" value="&amp;lt;&amp;lt;implements&amp;gt;&amp;gt;" style="edgeLabel;html=1;align=center;verticalAlign=middle;resizable=0;points=[];" vertex="1" connectable="0" parent="6Fsrv-u3DBaQ2dv-kSif-16">
          <mxGeometry x="0.2562" y="-1" relative="1" as="geometry">
            <mxPoint x="-14" y="13" as="offset" />
          </mxGeometry>
        </mxCell>
      </root>
    </mxGraphModel>
  </diagram>
</mxfile>
